<svg xmlns="http://www.w3.org/2000/svg" xmlns:xlink="http://www.w3.org/1999/xlink" viewBox="0 0 708 690.5"><defs><style>.cls-1,.cls-10,.cls-3,.cls-9{fill:none;}.cls-2{fill:#3b3b3b;}.cls-3{stroke:#000;}.cls-10,.cls-3,.cls-9{stroke-miterlimit:10;}.cls-10,.cls-3{stroke-width:2px;}.cls-4{fill:#a7a6a4;}.cls-5{fill:#ec1946;}.cls-6{fill:#fff;}.cls-7{fill:url(#Новый_образец_узора_3);}.cls-8{fill:url(#Новый_образец_узора_6);}.cls-9{stroke:#3b3b3b;stroke-width:11px;}.cls-10{stroke:#ec1946;}</style><pattern id="Новый_образец_узора_3" data-name="Новый образец узора 3" width="81" height="81" patternTransform="translate(11 3.47)" patternUnits="userSpaceOnUse" viewBox="0 0 81 81"><rect class="cls-1" width="81" height="81"/><circle class="cls-2" cx="11.5" cy="40.28" r="6.5"/><circle class="cls-2" cx="26.83" cy="20.03" r="6.5"/><circle class="cls-2" cx="26.83" cy="60.53" r="6.5"/><circle class="cls-2" cx="40" cy="40.28" r="6.5"/><circle class="cls-2" cx="53.17" cy="20.03" r="6.5"/><circle class="cls-2" cx="53.17" cy="60.53" r="6.5"/><circle class="cls-2" cx="68.5" cy="40.28" r="6.5"/><path class="cls-2" d="M73,20a6.5,6.5,0,0,0,6.5,6.5,6.16,6.16,0,0,0,1.5-.18V13.71a6.69,6.69,0,0,0-1.5-.18A6.5,6.5,0,0,0,73,20Z"/><path class="cls-2" d="M79.5,54a6.5,6.5,0,0,0,0,13,6.16,6.16,0,0,0,1.5-.18V54.21A6.69,6.69,0,0,0,79.5,54Z"/><path class="cls-2" d="M7,20a6.5,6.5,0,0,0-6.5-6.5c-.17,0-.33,0-.5,0v13l.5,0A6.5,6.5,0,0,0,7,20Z"/><path class="cls-2" d="M7,60.53A6.5,6.5,0,0,0,.5,54c-.17,0-.33,0-.5,0V67l.5,0A6.5,6.5,0,0,0,7,60.53Z"/><path class="cls-2" d="M11.72,6.28A6.49,6.49,0,0,0,18.21,0h-13A6.49,6.49,0,0,0,11.72,6.28Z"/><path class="cls-2" d="M40.22,6.28A6.49,6.49,0,0,0,46.71,0h-13A6.49,6.49,0,0,0,40.22,6.28Z"/><path class="cls-2" d="M68.72,6.28A6.49,6.49,0,0,0,75.21,0h-13A6.49,6.49,0,0,0,68.72,6.28Z"/><path class="cls-2" d="M11.72,74.28a6.5,6.5,0,0,0-6.5,6.5c0,.08,0,.15,0,.22h13c0-.07,0-.14,0-.22A6.5,6.5,0,0,0,11.72,74.28Z"/><path class="cls-2" d="M40.22,74.28a6.5,6.5,0,0,0-6.5,6.5c0,.08,0,.15,0,.22h13c0-.07,0-.14,0-.22A6.5,6.5,0,0,0,40.22,74.28Z"/><path class="cls-2" d="M68.72,74.28a6.5,6.5,0,0,0-6.5,6.5c0,.08,0,.15,0,.22h13c0-.07,0-.14,0-.22A6.5,6.5,0,0,0,68.72,74.28Z"/></pattern><pattern id="Новый_образец_узора_6" data-name="Новый образец узора 6" width="167.14" height="354.19" patternTransform="translate(-96.49 -307.05) scale(1.01 1.03)" patternUnits="userSpaceOnUse" viewBox="0 0 167.14 354.19"><rect class="cls-1" width="167.14" height="354.19"/><line class="cls-3" y1="16.65" x2="167" y2="16.65"/><line class="cls-3" y1="24.48" x2="167" y2="24.48"/><line class="cls-3" y1="1" x2="167" y2="1"/><line class="cls-3" y1="8.83" x2="167" y2="8.83"/><line class="cls-3" y1="47.96" x2="167" y2="47.96"/><line class="cls-3" y1="55.79" x2="167" y2="55.79"/><line class="cls-3" y1="32.31" x2="167" y2="32.31"/><line class="cls-3" y1="40.13" x2="167" y2="40.13"/><line class="cls-3" y1="79.27" x2="167" y2="79.27"/><line class="cls-3" y1="87.09" x2="167" y2="87.09"/><line class="cls-3" y1="63.61" x2="167" y2="63.61"/><line class="cls-3" y1="71.44" x2="167" y2="71.44"/><line class="cls-3" y1="110.57" x2="167" y2="110.57"/><line class="cls-3" y1="118.4" x2="167" y2="118.4"/><line class="cls-3" y1="94.92" x2="167" y2="94.92"/><line class="cls-3" y1="102.74" x2="167" y2="102.75"/><line class="cls-3" y1="141.88" x2="167" y2="141.88"/><line class="cls-3" y1="149.7" x2="167" y2="149.7"/><line class="cls-3" y1="126.22" x2="167" y2="126.22"/><line class="cls-3" y1="134.05" x2="167" y2="134.05"/><line class="cls-3" y1="157.53" x2="167" y2="157.53"/><line class="cls-3" y1="165.36" x2="167" y2="165.36"/><line class="cls-3" y1="173.18" x2="167" y2="173.18"/><line class="cls-3" x1="0.14" y1="196.66" x2="167.14" y2="196.66"/><line class="cls-3" x1="0.14" y1="204.49" x2="167.14" y2="204.49"/><line class="cls-3" x1="0.14" y1="181.01" x2="167.14" y2="181.01"/><line class="cls-3" x1="0.14" y1="188.84" x2="167.14" y2="188.84"/><line class="cls-3" x1="0.14" y1="227.97" x2="167.14" y2="227.97"/><line class="cls-3" x1="0.14" y1="235.8" x2="167.14" y2="235.8"/><line class="cls-3" x1="0.14" y1="212.32" x2="167.14" y2="212.32"/><line class="cls-3" x1="0.14" y1="220.14" x2="167.14" y2="220.14"/><line class="cls-3" x1="0.14" y1="259.28" x2="167.14" y2="259.28"/><line class="cls-3" x1="0.14" y1="267.1" x2="167.14" y2="267.1"/><line class="cls-3" x1="0.14" y1="243.62" x2="167.14" y2="243.62"/><line class="cls-3" x1="0.14" y1="251.45" x2="167.14" y2="251.45"/><line class="cls-3" x1="0.14" y1="290.58" x2="167.14" y2="290.58"/><line class="cls-3" x1="0.14" y1="298.41" x2="167.14" y2="298.41"/><line class="cls-3" x1="0.14" y1="274.93" x2="167.14" y2="274.93"/><line class="cls-3" x1="0.14" y1="282.76" x2="167.14" y2="282.76"/><line class="cls-3" x1="0.14" y1="321.89" x2="167.14" y2="321.89"/><line class="cls-3" x1="0.14" y1="329.71" x2="167.14" y2="329.71"/><line class="cls-3" x1="0.14" y1="306.23" x2="167.14" y2="306.23"/><line class="cls-3" x1="0.14" y1="314.06" x2="167.14" y2="314.06"/><line class="cls-3" x1="0.14" y1="337.54" x2="167.14" y2="337.54"/><line class="cls-3" x1="0.14" y1="345.37" x2="167.14" y2="345.37"/><line class="cls-3" x1="0.14" y1="353.19" x2="167.14" y2="353.19"/></pattern></defs><g id="Слой_2" data-name="Слой 2"><g id="Слой_1-2" data-name="Слой 1"><rect class="cls-4" x="133.5" y="297" width="87" height="354" transform="translate(651 297) rotate(90)"/><rect class="cls-5" y="4.5" width="182" height="173"/><rect class="cls-5" x="269" y="4.5" width="87" height="339"/><circle class="cls-2" cx="87.5" cy="431" r="87.5"/><path class="cls-2" d="M356,343.5H182v-166C278.1,177.5,356,251.82,356,343.5Z"/><path class="cls-2" d="M442,175.5a85,85,0,0,1,0-170Z"/><path class="cls-4" d="M530,177.5A87.45,87.45,0,0,1,530,2.6Z"/><rect class="cls-5" x="530" y="514.5" width="87" height="174"/><path class="cls-4" d="M705,688.5a87,87,0,0,1,0-174Z"/><rect class="cls-2" y="517.5" width="175" height="172"/><path class="cls-6" d="M175,521V689.5H0C0,596.45,78.35,521,175,521Z"/><circle class="cls-7" cx="353.5" cy="516" r="174.5"/><path class="cls-5" d="M705,343.5H530v-167C626.65,176.5,705,251.27,705,343.5Z"/><circle class="cls-6" cx="546.5" cy="196.5" r="5.5"/><circle class="cls-6" cx="546.5" cy="218.16" r="5.5"/><circle class="cls-6" cx="546.5" cy="239.83" r="5.5"/><circle class="cls-6" cx="546.5" cy="261.5" r="5.5"/><circle class="cls-6" cx="546.5" cy="283.16" r="5.5"/><circle class="cls-6" cx="546.5" cy="304.83" r="5.5"/><circle class="cls-6" cx="546.5" cy="326.5" r="5.5"/><rect class="cls-2" x="530" y="344.5" width="175" height="170"/><circle class="cls-6" cx="617.5" cy="429" r="85.5"/><polygon class="cls-2" points="530.17 343.5 356 343.5 530.17 175.5 530.17 343.5"/><path class="cls-8" d="M0,352.5v-175H182C182,274.15,100.52,352.5,0,352.5Z"/><line class="cls-3" x1="197.62" y1="97.93" x2="197.62" y2="4.22"/><line class="cls-3" x1="205.49" y1="97.93" x2="205.49" y2="4.22"/><line class="cls-3" x1="181.9" y1="97.93" x2="181.9" y2="4.22"/><line class="cls-3" x1="189.76" y1="97.93" x2="189.76" y2="4.22"/><line class="cls-3" x1="229.08" y1="97.93" x2="229.08" y2="4.22"/><line class="cls-3" x1="236.94" y1="97.93" x2="236.94" y2="4.22"/><line class="cls-3" x1="213.35" y1="97.93" x2="213.35" y2="4.22"/><line class="cls-3" x1="221.21" y1="97.93" x2="221.21" y2="4.22"/><line class="cls-3" x1="260.53" y1="97.93" x2="260.53" y2="4.22"/><line class="cls-3" x1="268.4" y1="97.93" x2="268.4" y2="4.22"/><line class="cls-3" x1="244.81" y1="97.93" x2="244.81" y2="4.22"/><line class="cls-3" x1="252.67" y1="97.93" x2="252.67" y2="4.22"/><line class="cls-3" x1="284.4" y1="98.42" x2="284.4" y2="4.71"/><line class="cls-3" x1="292.26" y1="98.42" x2="292.26" y2="4.71"/><line class="cls-3" x1="268.67" y1="98.42" x2="268.67" y2="4.71"/><line class="cls-3" x1="276.54" y1="98.42" x2="276.54" y2="4.71"/><line class="cls-3" x1="315.85" y1="98.42" x2="315.85" y2="4.71"/><line class="cls-3" x1="323.72" y1="98.42" x2="323.72" y2="4.71"/><line class="cls-3" x1="300.13" y1="98.42" x2="300.13" y2="4.71"/><line class="cls-3" x1="307.99" y1="98.42" x2="307.99" y2="4.71"/><line class="cls-3" x1="347.31" y1="98.42" x2="347.31" y2="4.71"/><line class="cls-3" x1="355.17" y1="98.42" x2="355.17" y2="4.71"/><line class="cls-3" x1="331.58" y1="98.42" x2="331.58" y2="4.71"/><line class="cls-3" x1="339.44" y1="98.42" x2="339.44" y2="4.71"/><circle cx="195.5" cy="116" r="5.5"/><circle cx="195.5" cy="137.5" r="5.5"/><circle cx="195.5" cy="159" r="5.5"/><path class="cls-9" d="M533.28,175.5c0-93.89,78.22-170,174.72-170"/><path class="cls-9" d="M547.32,175.81c0-86.34,71.94-156.34,160.68-156.34"/><path class="cls-9" d="M563.82,175.5c0-77.33,64.43-140,143.9-140"/><path class="cls-9" d="M580.55,175.5c0-68.48,57.06-124,127.45-124"/><path class="cls-9" d="M596,175.5c0-60.2,50.16-109,112-109"/><path class="cls-9" d="M611.37,175.52c0-51.92,43.26-94,96.63-94"/><path class="cls-9" d="M626.78,175.5c0-43.64,36.36-79,81.22-79"/><path class="cls-9" d="M640.25,176c0-36.41,30.34-65.92,67.75-65.92"/><path class="cls-9" d="M654.23,176c0-28.89,24.08-52.32,53.77-52.32"/><path class="cls-9" d="M669.7,176c0-20.58,17.15-37.27,38.3-37.27"/><path class="cls-9" d="M683,176.23c0-13.46,11.21-24.36,25-24.36"/><path class="cls-9" d="M697.58,175.78A10.28,10.28,0,0,1,708,165.64"/><line class="cls-10" x1="191.85" y1="689.5" x2="191.85" y2="518.03"/><line class="cls-10" x1="199.57" y1="689.5" x2="199.57" y2="518.03"/><line class="cls-10" x1="176.41" y1="689.5" x2="176.41" y2="518.03"/><line class="cls-10" x1="184.13" y1="689.5" x2="184.13" y2="518.03"/><line class="cls-10" x1="222.73" y1="689.5" x2="222.73" y2="518.03"/><line class="cls-10" x1="230.46" y1="689.5" x2="230.46" y2="518.03"/><line class="cls-10" x1="207.29" y1="689.5" x2="207.29" y2="518.03"/><line class="cls-10" x1="215.01" y1="689.5" x2="215.01" y2="518.03"/><line class="cls-10" x1="253.62" y1="689.5" x2="253.62" y2="518.03"/><line class="cls-10" x1="261.34" y1="689.5" x2="261.34" y2="518.03"/><line class="cls-10" x1="238.18" y1="689.5" x2="238.18" y2="518.03"/><line class="cls-10" x1="245.9" y1="689.5" x2="245.9" y2="518.03"/><line class="cls-10" x1="284.51" y1="689.5" x2="284.51" y2="518.03"/><line class="cls-10" x1="292.23" y1="689.5" x2="292.23" y2="518.03"/><line class="cls-10" x1="269.06" y1="689.5" x2="269.06" y2="518.03"/><line class="cls-10" x1="276.79" y1="689.5" x2="276.79" y2="518.03"/><line class="cls-10" x1="315.39" y1="689.5" x2="315.39" y2="518.03"/><line class="cls-10" x1="323.11" y1="689.5" x2="323.11" y2="518.03"/><line class="cls-10" x1="299.95" y1="689.5" x2="299.95" y2="518.03"/><line class="cls-10" x1="307.67" y1="689.5" x2="307.67" y2="518.03"/><line class="cls-10" x1="330.84" y1="689.5" x2="330.84" y2="518.03"/><line class="cls-10" x1="338.56" y1="689.5" x2="338.56" y2="518.03"/><line class="cls-10" x1="346.28" y1="689.5" x2="346.28" y2="518.03"/><line class="cls-10" x1="354" y1="689.36" x2="354" y2="517.89"/><circle cx="332.1" cy="116" r="5.5"/><circle cx="332.1" cy="137.5" r="5.5"/><circle cx="332.1" cy="159" r="5.5"/><circle cx="309.33" cy="116" r="5.5"/><circle cx="309.33" cy="137.5" r="5.5"/><circle cx="309.33" cy="159" r="5.5"/><circle cx="263.8" cy="116" r="5.5"/><circle cx="263.8" cy="137.5" r="5.5"/><circle cx="263.8" cy="159" r="5.5"/><circle cx="218.27" cy="116" r="5.5"/><circle cx="218.27" cy="137.5" r="5.5"/><circle cx="218.27" cy="159" r="5.5"/><circle cx="286.57" cy="116" r="5.5"/><circle cx="286.57" cy="137.5" r="5.5"/><circle cx="286.57" cy="159" r="5.5"/><circle cx="241.03" cy="116" r="5.5"/><circle cx="241.03" cy="137.5" r="5.5"/><circle cx="241.03" cy="159" r="5.5"/><circle class="cls-6" cx="569.58" cy="196.5" r="5.5"/><circle class="cls-6" cx="569.58" cy="218.16" r="5.5"/><circle class="cls-6" cx="569.58" cy="239.83" r="5.5"/><circle class="cls-6" cx="569.58" cy="261.5" r="5.5"/><circle class="cls-6" cx="569.58" cy="283.16" r="5.5"/><circle class="cls-6" cx="569.58" cy="304.83" r="5.5"/><circle class="cls-6" cx="569.58" cy="326.5" r="5.5"/><circle class="cls-6" cx="592.65" cy="218.16" r="5.5"/><circle class="cls-6" cx="592.65" cy="239.83" r="5.5"/><circle class="cls-6" cx="592.65" cy="261.5" r="5.5"/><circle class="cls-6" cx="592.65" cy="283.16" r="5.5"/><circle class="cls-6" cx="592.65" cy="304.83" r="5.5"/><circle class="cls-6" cx="592.65" cy="326.5" r="5.5"/><circle class="cls-6" cx="615.73" cy="218.16" r="5.5"/><circle class="cls-6" cx="615.73" cy="239.83" r="5.5"/><circle class="cls-6" cx="615.73" cy="261.5" r="5.5"/><circle class="cls-6" cx="615.73" cy="283.16" r="5.5"/><circle class="cls-6" cx="615.73" cy="304.83" r="5.5"/><circle class="cls-6" cx="615.73" cy="326.5" r="5.5"/><circle class="cls-6" cx="638.8" cy="239.83" r="5.5"/><circle class="cls-6" cx="638.8" cy="261.5" r="5.5"/><circle class="cls-6" cx="638.8" cy="283.16" r="5.5"/><circle class="cls-6" cx="638.8" cy="304.83" r="5.5"/><circle class="cls-6" cx="638.8" cy="326.5" r="5.5"/><circle class="cls-6" cx="661.88" cy="261.5" r="5.5"/><circle class="cls-6" cx="661.88" cy="283.16" r="5.5"/><circle class="cls-6" cx="661.88" cy="304.83" r="5.5"/><circle class="cls-6" cx="661.88" cy="326.5" r="5.5"/><circle class="cls-6" cx="684.96" cy="304.83" r="5.5"/><circle class="cls-6" cx="684.96" cy="326.5" r="5.5"/></g></g></svg>