<svg xmlns="http://www.w3.org/2000/svg" viewBox="0 0 720 726"><defs><style>.cls-1{fill:#ec1946;}</style></defs><g id="Слой_2" data-name="Слой 2"><g id="Слой_1-2" data-name="Слой 1"><circle class="cls-1" cx="419.12" cy="198" r="23"/><circle cx="265" cy="71" r="23"/><rect class="cls-1" x="227" y="132" width="76" height="127"/><rect x="303" y="196" width="74" height="63"/><rect x="377" y="259" width="39" height="127"/><rect x="303" width="39" height="132"/><rect x="377" width="77" height="66"/><rect x="306" y="259" width="7" height="6"/><rect x="318.8" y="259" width="7" height="6"/><rect x="370" y="259" width="7" height="6"/><rect x="331.6" y="259" width="7" height="6"/><rect x="344.4" y="259" width="7" height="6"/><rect x="357.2" y="259" width="7" height="6"/><rect x="299.54" y="271.67" width="7" height="6"/><rect x="312.34" y="271.67" width="7" height="6"/><rect x="363.54" y="271.67" width="7" height="6"/><rect x="325.14" y="271.67" width="7" height="6"/><rect x="337.94" y="271.67" width="7" height="6"/><rect x="350.74" y="271.67" width="7" height="6"/><rect x="306" y="284.34" width="7" height="6"/><rect x="318.8" y="284.34" width="7" height="6"/><rect x="370" y="284.34" width="7" height="6"/><rect x="331.6" y="284.34" width="7" height="6"/><rect x="344.4" y="284.34" width="7" height="6"/><rect x="357.2" y="284.34" width="7" height="6"/><rect x="306" y="309.69" width="7" height="6"/><rect x="318.8" y="309.69" width="7" height="6"/><rect x="370" y="309.69" width="7" height="6"/><rect x="331.6" y="309.69" width="7" height="6"/><rect x="344.4" y="309.69" width="7" height="6"/><rect x="357.2" y="309.69" width="7" height="6"/><rect x="299.54" y="322.36" width="7" height="6"/><rect x="312.34" y="322.36" width="7" height="6"/><rect x="363.54" y="322.36" width="7" height="6"/><rect x="325.14" y="322.36" width="7" height="6"/><rect x="337.94" y="322.36" width="7" height="6"/><rect x="350.74" y="322.36" width="7" height="6"/><rect x="306" y="335.03" width="7" height="6"/><rect x="318.8" y="335.03" width="7" height="6"/><rect x="370" y="335.03" width="7" height="6"/><rect x="331.6" y="335.03" width="7" height="6"/><rect x="344.4" y="335.03" width="7" height="6"/><rect x="357.2" y="335.03" width="7" height="6"/><rect x="299.54" y="347.7" width="7" height="6"/><rect x="312.34" y="347.7" width="7" height="6"/><rect x="363.54" y="347.7" width="7" height="6"/><rect x="325.14" y="347.7" width="7" height="6"/><rect x="337.94" y="347.7" width="7" height="6"/><rect x="350.74" y="347.7" width="7" height="6"/><rect x="306" y="360.38" width="7" height="6"/><rect x="318.8" y="360.38" width="7" height="6"/><rect x="370" y="360.38" width="7" height="6"/><rect x="331.6" y="360.38" width="7" height="6"/><rect x="344.4" y="360.38" width="7" height="6"/><rect x="357.2" y="360.38" width="7" height="6"/><rect x="299.54" y="297.02" width="7" height="6"/><rect x="312.34" y="297.02" width="7" height="6"/><rect x="363.54" y="297.02" width="7" height="6"/><rect x="325.14" y="297.02" width="7" height="6"/><rect x="337.94" y="297.02" width="7" height="6"/><rect x="350.74" y="297.02" width="7" height="6"/><rect x="306" y="385.72" width="7" height="6"/><rect x="318.8" y="385.72" width="7" height="6"/><rect x="370" y="385.72" width="7" height="6"/><rect x="331.6" y="385.72" width="7" height="6"/><rect x="344.4" y="385.72" width="7" height="6"/><rect x="357.2" y="385.72" width="7" height="6"/><rect x="299.54" y="398.39" width="7" height="6"/><rect x="312.34" y="398.39" width="7" height="6"/><rect x="363.54" y="398.39" width="7" height="6"/><rect x="325.14" y="398.39" width="7" height="6"/><rect x="337.94" y="398.39" width="7" height="6"/><rect x="350.74" y="398.39" width="7" height="6"/><rect x="306" y="411.06" width="7" height="6"/><rect x="318.8" y="411.06" width="7" height="6"/><rect x="370" y="411.06" width="7" height="6"/><rect x="331.6" y="411.06" width="7" height="6"/><rect x="344.4" y="411.06" width="7" height="6"/><rect x="357.2" y="411.06" width="7" height="6"/><rect x="299.54" y="373.05" width="7" height="6"/><rect x="312.34" y="373.05" width="7" height="6"/><rect x="363.54" y="373.05" width="7" height="6"/><rect x="325.14" y="373.05" width="7" height="6"/><rect x="337.94" y="373.05" width="7" height="6"/><rect x="350.74" y="373.05" width="7" height="6"/><rect x="299.54" y="423.74" width="7" height="6"/><rect x="312.34" y="423.74" width="7" height="6"/><rect x="363.54" y="423.74" width="7" height="6"/><rect x="325.14" y="423.74" width="7" height="6"/><rect x="337.94" y="423.74" width="7" height="6"/><rect x="350.74" y="423.74" width="7" height="6"/><rect x="460.09" y="4.26" width="7" height="6"/><rect x="472.89" y="4.26" width="7" height="6"/><rect x="524.09" y="4.26" width="7" height="6"/><rect x="485.69" y="4.26" width="7" height="6"/><rect x="498.49" y="4.26" width="7" height="6"/><rect x="511.29" y="4.26" width="7" height="6"/><rect x="453.63" y="16.93" width="7" height="6"/><rect x="466.43" y="16.93" width="7" height="6"/><rect x="517.63" y="16.93" width="7" height="6"/><rect x="479.23" y="16.93" width="7" height="6"/><rect x="492.03" y="16.93" width="7" height="6"/><rect x="504.83" y="16.93" width="7" height="6"/><rect x="460.09" y="29.61" width="7" height="6"/><rect x="472.89" y="29.61" width="7" height="6"/><rect x="524.09" y="29.61" width="7" height="6"/><rect x="485.69" y="29.61" width="7" height="6"/><rect x="498.49" y="29.61" width="7" height="6"/><rect x="511.29" y="29.61" width="7" height="6"/><rect x="460.09" y="54.95" width="7" height="6"/><rect x="472.89" y="54.95" width="7" height="6"/><rect x="524.09" y="54.95" width="7" height="6"/><rect x="485.69" y="54.95" width="7" height="6"/><rect x="498.49" y="54.95" width="7" height="6"/><rect x="511.29" y="54.95" width="7" height="6"/><rect x="453.63" y="67.62" width="7" height="6"/><rect x="466.43" y="67.62" width="7" height="6"/><rect x="517.63" y="67.62" width="7" height="6"/><rect x="479.23" y="67.62" width="7" height="6"/><rect x="492.03" y="67.62" width="7" height="6"/><rect x="504.83" y="67.62" width="7" height="6"/><rect x="460.09" y="80.3" width="7" height="6"/><rect x="472.89" y="80.3" width="7" height="6"/><rect x="524.09" y="80.3" width="7" height="6"/><rect x="485.69" y="80.3" width="7" height="6"/><rect x="498.49" y="80.3" width="7" height="6"/><rect x="511.29" y="80.3" width="7" height="6"/><rect x="453.63" y="42.28" width="7" height="6"/><rect x="466.43" y="42.28" width="7" height="6"/><rect x="517.63" y="42.28" width="7" height="6"/><rect x="479.23" y="42.28" width="7" height="6"/><rect x="492.03" y="42.28" width="7" height="6"/><rect x="504.83" y="42.28" width="7" height="6"/><rect x="453.63" y="92.97" width="7" height="6"/><rect x="466.43" y="92.97" width="7" height="6"/><rect x="517.63" y="92.97" width="7" height="6"/><rect x="479.23" y="92.97" width="7" height="6"/><rect x="492.03" y="92.97" width="7" height="6"/><rect x="504.83" y="92.97" width="7" height="6"/><rect x="460.09" y="105.98" width="7" height="6"/><rect x="472.89" y="105.98" width="7" height="6"/><rect x="524.09" y="105.98" width="7" height="6"/><rect x="485.69" y="105.98" width="7" height="6"/><rect x="498.49" y="105.98" width="7" height="6"/><rect x="511.29" y="105.98" width="7" height="6"/><rect x="453.63" y="118.66" width="7" height="6"/><rect x="466.43" y="118.66" width="7" height="6"/><rect x="517.63" y="118.66" width="7" height="6"/><rect x="479.23" y="118.66" width="7" height="6"/><rect x="492.03" y="118.66" width="7" height="6"/><rect x="504.83" y="118.66" width="7" height="6"/><rect x="306.09" y="436.68" width="7" height="6"/><rect x="318.89" y="436.68" width="7" height="6"/><rect x="370.09" y="436.68" width="7" height="6"/><rect x="331.69" y="436.68" width="7" height="6"/><rect x="344.49" y="436.68" width="7" height="6"/><rect x="357.29" y="436.68" width="7" height="6"/><rect x="306.09" y="462.03" width="7" height="6"/><rect x="318.89" y="462.03" width="7" height="6"/><rect x="370.09" y="462.03" width="7" height="6"/><rect x="331.69" y="462.03" width="7" height="6"/><rect x="344.49" y="462.03" width="7" height="6"/><rect x="357.29" y="462.03" width="7" height="6"/><rect x="299.63" y="474.7" width="7" height="6"/><rect x="312.43" y="474.7" width="7" height="6"/><rect x="363.63" y="474.7" width="7" height="6"/><rect x="325.23" y="474.7" width="7" height="6"/><rect x="338.03" y="474.7" width="7" height="6"/><rect x="350.83" y="474.7" width="7" height="6"/><rect x="306.09" y="487.37" width="7" height="6"/><rect x="318.89" y="487.37" width="7" height="6"/><rect x="370.09" y="487.37" width="7" height="6"/><rect x="331.69" y="487.37" width="7" height="6"/><rect x="344.49" y="487.37" width="7" height="6"/><rect x="357.29" y="487.37" width="7" height="6"/><rect x="299.63" y="449.35" width="7" height="6"/><rect x="312.43" y="449.35" width="7" height="6"/><rect x="363.63" y="449.35" width="7" height="6"/><rect x="325.23" y="449.35" width="7" height="6"/><rect x="338.03" y="449.35" width="7" height="6"/><rect x="350.83" y="449.35" width="7" height="6"/><rect x="299.63" y="500.04" width="7" height="6"/><rect x="312.43" y="500.04" width="7" height="6"/><rect x="363.63" y="500.04" width="7" height="6"/><rect x="325.23" y="500.04" width="7" height="6"/><rect x="338.03" y="500.04" width="7" height="6"/><rect x="350.83" y="500.04" width="7" height="6"/><circle class="cls-1" cx="263.5" cy="325" r="23"/><rect x="156.13" y="131.88" width="7" height="6"/><rect x="168.93" y="131.88" width="7" height="6"/><rect x="220.13" y="131.88" width="7" height="6"/><rect x="181.73" y="131.88" width="7" height="6"/><rect x="194.53" y="131.88" width="7" height="6"/><rect x="207.33" y="131.88" width="7" height="6"/><rect x="149.67" y="144.55" width="7" height="6"/><rect x="162.47" y="144.55" width="7" height="6"/><rect x="213.67" y="144.55" width="7" height="6"/><rect x="175.27" y="144.55" width="7" height="6"/><rect x="188.07" y="144.55" width="7" height="6"/><rect x="200.87" y="144.55" width="7" height="6"/><rect x="156.13" y="157.22" width="7" height="6"/><rect x="168.93" y="157.22" width="7" height="6"/><rect x="220.13" y="157.22" width="7" height="6"/><rect x="181.73" y="157.22" width="7" height="6"/><rect x="194.53" y="157.22" width="7" height="6"/><rect x="207.33" y="157.22" width="7" height="6"/><rect x="156.13" y="182.56" width="7" height="6"/><rect x="168.93" y="182.56" width="7" height="6"/><rect x="220.13" y="182.56" width="7" height="6"/><rect x="181.73" y="182.56" width="7" height="6"/><rect x="194.53" y="182.56" width="7" height="6"/><rect x="207.33" y="182.56" width="7" height="6"/><rect x="149.67" y="195.24" width="7" height="6"/><rect x="162.47" y="195.24" width="7" height="6"/><rect x="213.67" y="195.24" width="7" height="6"/><rect x="175.27" y="195.24" width="7" height="6"/><rect x="188.07" y="195.24" width="7" height="6"/><rect x="200.87" y="195.24" width="7" height="6"/><rect x="156.13" y="207.91" width="7" height="6"/><rect x="168.93" y="207.91" width="7" height="6"/><rect x="220.13" y="207.91" width="7" height="6"/><rect x="181.73" y="207.91" width="7" height="6"/><rect x="194.53" y="207.91" width="7" height="6"/><rect x="207.33" y="207.91" width="7" height="6"/><rect x="149.67" y="169.89" width="7" height="6"/><rect x="162.47" y="169.89" width="7" height="6"/><rect x="213.67" y="169.89" width="7" height="6"/><rect x="175.27" y="169.89" width="7" height="6"/><rect x="188.07" y="169.89" width="7" height="6"/><rect x="200.87" y="169.89" width="7" height="6"/><rect x="149.67" y="220.58" width="7" height="6"/><rect x="162.47" y="220.58" width="7" height="6"/><rect x="213.67" y="220.58" width="7" height="6"/><rect x="175.27" y="220.58" width="7" height="6"/><rect x="188.07" y="220.58" width="7" height="6"/><rect x="200.87" y="220.58" width="7" height="6"/><rect x="156.13" y="233.6" width="7" height="6"/><rect x="168.93" y="233.6" width="7" height="6"/><rect x="220.13" y="233.6" width="7" height="6"/><rect x="181.73" y="233.6" width="7" height="6"/><rect x="194.53" y="233.6" width="7" height="6"/><rect x="207.33" y="233.6" width="7" height="6"/><rect x="149.67" y="246.27" width="7" height="6"/><rect x="162.47" y="246.27" width="7" height="6"/><rect x="213.67" y="246.27" width="7" height="6"/><rect x="175.27" y="246.27" width="7" height="6"/><rect x="188.07" y="246.27" width="7" height="6"/><rect x="200.87" y="246.27" width="7" height="6"/><rect class="cls-1" x="78" y="65" width="74" height="65"/><rect x="4" y="130" width="74" height="65"/><rect x="6.74" y="5.04" width="7" height="6"/><rect x="19.54" y="5.04" width="7" height="6"/><rect x="70.74" y="5.04" width="7" height="6"/><rect x="32.34" y="5.04" width="7" height="6"/><rect x="45.14" y="5.04" width="7" height="6"/><rect x="57.94" y="5.04" width="7" height="6"/><rect x="0.28" y="17.71" width="7" height="6"/><rect x="13.08" y="17.71" width="7" height="6"/><rect x="64.28" y="17.71" width="7" height="6"/><rect x="25.88" y="17.71" width="7" height="6"/><rect x="38.68" y="17.71" width="7" height="6"/><rect x="51.48" y="17.71" width="7" height="6"/><rect x="6.74" y="30.38" width="7" height="6"/><rect x="19.54" y="30.38" width="7" height="6"/><rect x="70.74" y="30.38" width="7" height="6"/><rect x="32.34" y="30.38" width="7" height="6"/><rect x="45.14" y="30.38" width="7" height="6"/><rect x="57.94" y="30.38" width="7" height="6"/><rect x="0.28" y="43.06" width="7" height="6"/><rect x="13.08" y="43.06" width="7" height="6"/><rect x="64.28" y="43.06" width="7" height="6"/><rect x="25.88" y="43.06" width="7" height="6"/><rect x="38.68" y="43.06" width="7" height="6"/><rect x="51.48" y="43.06" width="7" height="6"/><rect x="6.82" y="56" width="7" height="6"/><rect x="19.62" y="56" width="7" height="6"/><rect x="70.82" y="56" width="7" height="6"/><rect x="32.42" y="56" width="7" height="6"/><rect x="45.22" y="56" width="7" height="6"/><rect x="58.02" y="56" width="7" height="6"/><rect x="6.82" y="81.35" width="7" height="6"/><rect x="19.62" y="81.35" width="7" height="6"/><rect x="70.82" y="81.35" width="7" height="6"/><rect x="32.42" y="81.35" width="7" height="6"/><rect x="45.22" y="81.35" width="7" height="6"/><rect x="58.02" y="81.35" width="7" height="6"/><rect x="0.37" y="94.02" width="7" height="6"/><rect x="13.17" y="94.02" width="7" height="6"/><rect x="64.37" y="94.02" width="7" height="6"/><rect x="25.97" y="94.02" width="7" height="6"/><rect x="38.77" y="94.02" width="7" height="6"/><rect x="51.57" y="94.02" width="7" height="6"/><rect x="6.82" y="106.69" width="7" height="6"/><rect x="19.62" y="106.69" width="7" height="6"/><rect x="70.82" y="106.69" width="7" height="6"/><rect x="32.42" y="106.69" width="7" height="6"/><rect x="45.22" y="106.69" width="7" height="6"/><rect x="58.02" y="106.69" width="7" height="6"/><rect x="0.37" y="68.67" width="7" height="6"/><rect x="13.17" y="68.67" width="7" height="6"/><rect x="64.37" y="68.67" width="7" height="6"/><rect x="25.97" y="68.67" width="7" height="6"/><rect x="38.77" y="68.67" width="7" height="6"/><rect x="51.57" y="68.67" width="7" height="6"/><rect x="0.37" y="119.36" width="7" height="6"/><rect x="13.17" y="119.36" width="7" height="6"/><rect x="64.37" y="119.36" width="7" height="6"/><rect x="25.97" y="119.36" width="7" height="6"/><rect x="38.77" y="119.36" width="7" height="6"/><rect x="51.57" y="119.36" width="7" height="6"/><rect x="531" width="39" height="132"/><rect class="cls-1" x="531" y="132" width="77" height="63"/><rect class="cls-1" x="608" y="259" width="76" height="127"/><rect x="608" y="132" width="39" height="127"/><rect x="684" y="259" width="36" height="63"/><rect class="cls-1" x="684" y="130" width="36" height="65"/><rect x="684" width="36" height="132"/><rect x="613.3" y="6.08" width="7" height="6"/><rect x="626.1" y="6.08" width="7" height="6"/><rect x="677.3" y="6.08" width="7" height="6"/><rect x="638.9" y="6.08" width="7" height="6"/><rect x="651.7" y="6.08" width="7" height="6"/><rect x="664.5" y="6.08" width="7" height="6"/><rect x="606.85" y="18.75" width="7" height="6"/><rect x="619.65" y="18.75" width="7" height="6"/><rect x="670.85" y="18.75" width="7" height="6"/><rect x="632.45" y="18.75" width="7" height="6"/><rect x="645.25" y="18.75" width="7" height="6"/><rect x="658.05" y="18.75" width="7" height="6"/><rect x="613.3" y="31.42" width="7" height="6"/><rect x="626.1" y="31.42" width="7" height="6"/><rect x="677.3" y="31.42" width="7" height="6"/><rect x="638.9" y="31.42" width="7" height="6"/><rect x="651.7" y="31.42" width="7" height="6"/><rect x="664.5" y="31.42" width="7" height="6"/><rect x="613.3" y="56.77" width="7" height="6"/><rect x="626.1" y="56.77" width="7" height="6"/><rect x="677.3" y="56.77" width="7" height="6"/><rect x="638.9" y="56.77" width="7" height="6"/><rect x="651.7" y="56.77" width="7" height="6"/><rect x="664.5" y="56.77" width="7" height="6"/><rect x="606.85" y="69.44" width="7" height="6"/><rect x="619.65" y="69.44" width="7" height="6"/><rect x="670.85" y="69.44" width="7" height="6"/><rect x="632.45" y="69.44" width="7" height="6"/><rect x="645.25" y="69.44" width="7" height="6"/><rect x="658.05" y="69.44" width="7" height="6"/><rect x="613.3" y="82.11" width="7" height="6"/><rect x="626.1" y="82.11" width="7" height="6"/><rect x="677.3" y="82.11" width="7" height="6"/><rect x="638.9" y="82.11" width="7" height="6"/><rect x="651.7" y="82.11" width="7" height="6"/><rect x="664.5" y="82.11" width="7" height="6"/><rect x="606.85" y="44.09" width="7" height="6"/><rect x="619.65" y="44.09" width="7" height="6"/><rect x="670.85" y="44.09" width="7" height="6"/><rect x="632.45" y="44.09" width="7" height="6"/><rect x="645.25" y="44.09" width="7" height="6"/><rect x="658.05" y="44.09" width="7" height="6"/><rect x="606.85" y="94.78" width="7" height="6"/><rect x="619.65" y="94.78" width="7" height="6"/><rect x="670.85" y="94.78" width="7" height="6"/><rect x="632.45" y="94.78" width="7" height="6"/><rect x="645.25" y="94.78" width="7" height="6"/><rect x="658.05" y="94.78" width="7" height="6"/><rect x="613.3" y="107.8" width="7" height="6"/><rect x="626.1" y="107.8" width="7" height="6"/><rect x="677.3" y="107.8" width="7" height="6"/><rect x="638.9" y="107.8" width="7" height="6"/><rect x="651.7" y="107.8" width="7" height="6"/><rect x="664.5" y="107.8" width="7" height="6"/><rect x="606.85" y="120.47" width="7" height="6"/><rect x="619.65" y="120.47" width="7" height="6"/><rect x="670.85" y="120.47" width="7" height="6"/><rect x="632.45" y="120.47" width="7" height="6"/><rect x="645.25" y="120.47" width="7" height="6"/><rect x="658.05" y="120.47" width="7" height="6"/><rect x="537.3" y="259.22" width="7" height="6"/><rect x="550.1" y="259.22" width="7" height="6"/><rect x="601.3" y="259.22" width="7" height="6"/><rect x="562.9" y="259.22" width="7" height="6"/><rect x="575.7" y="259.22" width="7" height="6"/><rect x="588.5" y="259.22" width="7" height="6"/><rect x="530.85" y="271.89" width="7" height="6"/><rect x="543.65" y="271.89" width="7" height="6"/><rect x="594.85" y="271.89" width="7" height="6"/><rect x="556.45" y="271.89" width="7" height="6"/><rect x="569.25" y="271.89" width="7" height="6"/><rect x="582.05" y="271.89" width="7" height="6"/><rect x="537.3" y="284.56" width="7" height="6"/><rect x="550.1" y="284.56" width="7" height="6"/><rect x="601.3" y="284.56" width="7" height="6"/><rect x="562.9" y="284.56" width="7" height="6"/><rect x="575.7" y="284.56" width="7" height="6"/><rect x="588.5" y="284.56" width="7" height="6"/><rect x="537.3" y="309.9" width="7" height="6"/><rect x="550.1" y="309.9" width="7" height="6"/><rect x="601.3" y="309.9" width="7" height="6"/><rect x="562.9" y="309.9" width="7" height="6"/><rect x="575.7" y="309.9" width="7" height="6"/><rect x="588.5" y="309.9" width="7" height="6"/><rect x="530.85" y="322.58" width="7" height="6"/><rect x="543.65" y="322.58" width="7" height="6"/><rect x="594.85" y="322.58" width="7" height="6"/><rect x="556.45" y="322.58" width="7" height="6"/><rect x="569.25" y="322.58" width="7" height="6"/><rect x="582.05" y="322.58" width="7" height="6"/><rect x="537.3" y="335.25" width="7" height="6"/><rect x="550.1" y="335.25" width="7" height="6"/><rect x="601.3" y="335.25" width="7" height="6"/><rect x="562.9" y="335.25" width="7" height="6"/><rect x="575.7" y="335.25" width="7" height="6"/><rect x="588.5" y="335.25" width="7" height="6"/><rect x="530.85" y="297.23" width="7" height="6"/><rect x="543.65" y="297.23" width="7" height="6"/><rect x="594.85" y="297.23" width="7" height="6"/><rect x="556.45" y="297.23" width="7" height="6"/><rect x="569.25" y="297.23" width="7" height="6"/><rect x="582.05" y="297.23" width="7" height="6"/><rect x="530.85" y="347.92" width="7" height="6"/><rect x="543.65" y="347.92" width="7" height="6"/><rect x="594.85" y="347.92" width="7" height="6"/><rect x="556.45" y="347.92" width="7" height="6"/><rect x="569.25" y="347.92" width="7" height="6"/><rect x="582.05" y="347.92" width="7" height="6"/><rect x="537.3" y="360.94" width="7" height="6"/><rect x="550.1" y="360.94" width="7" height="6"/><rect x="601.3" y="360.94" width="7" height="6"/><rect x="562.9" y="360.94" width="7" height="6"/><rect x="575.7" y="360.94" width="7" height="6"/><rect x="588.5" y="360.94" width="7" height="6"/><rect x="530.85" y="373.61" width="7" height="6"/><rect x="543.65" y="373.61" width="7" height="6"/><rect x="594.85" y="373.61" width="7" height="6"/><rect x="556.45" y="373.61" width="7" height="6"/><rect x="569.25" y="373.61" width="7" height="6"/><rect x="582.05" y="373.61" width="7" height="6"/><rect x="531" y="386" width="77" height="63"/><rect class="cls-1" x="454" y="259" width="38" height="127"/><rect x="454" y="386" width="38" height="252"/><rect x="454" y="512" width="77" height="126"/><circle cx="419.12" cy="450.5" r="22.5"/><circle class="cls-1" cx="646" cy="579.5" r="22.5"/><circle class="cls-1" cx="39" cy="323" r="22"/><rect x="6.89" y="385.58" width="7" height="6"/><rect x="19.69" y="385.58" width="7" height="6"/><rect x="70.89" y="385.58" width="7" height="6"/><rect x="32.49" y="385.58" width="7" height="6"/><rect x="45.29" y="385.58" width="7" height="6"/><rect x="58.09" y="385.58" width="7" height="6"/><rect x="0.43" y="398.25" width="7" height="6"/><rect x="13.23" y="398.25" width="7" height="6"/><rect x="64.43" y="398.25" width="7" height="6"/><rect x="26.03" y="398.25" width="7" height="6"/><rect x="38.83" y="398.25" width="7" height="6"/><rect x="51.63" y="398.25" width="7" height="6"/><rect x="6.89" y="410.92" width="7" height="6"/><rect x="19.69" y="410.92" width="7" height="6"/><rect x="70.89" y="410.92" width="7" height="6"/><rect x="32.49" y="410.92" width="7" height="6"/><rect x="45.29" y="410.92" width="7" height="6"/><rect x="58.09" y="410.92" width="7" height="6"/><rect x="6.89" y="436.27" width="7" height="6"/><rect x="19.69" y="436.27" width="7" height="6"/><rect x="70.89" y="436.27" width="7" height="6"/><rect x="32.49" y="436.27" width="7" height="6"/><rect x="45.29" y="436.27" width="7" height="6"/><rect x="58.09" y="436.27" width="7" height="6"/><rect x="0.43" y="448.94" width="7" height="6"/><rect x="13.23" y="448.94" width="7" height="6"/><rect x="64.43" y="448.94" width="7" height="6"/><rect x="26.03" y="448.94" width="7" height="6"/><rect x="38.83" y="448.94" width="7" height="6"/><rect x="51.63" y="448.94" width="7" height="6"/><rect x="6.89" y="461.61" width="7" height="6"/><rect x="19.69" y="461.61" width="7" height="6"/><rect x="70.89" y="461.61" width="7" height="6"/><rect x="32.49" y="461.61" width="7" height="6"/><rect x="45.29" y="461.61" width="7" height="6"/><rect x="58.09" y="461.61" width="7" height="6"/><rect x="0.43" y="423.6" width="7" height="6"/><rect x="13.23" y="423.6" width="7" height="6"/><rect x="64.43" y="423.6" width="7" height="6"/><rect x="26.03" y="423.6" width="7" height="6"/><rect x="38.83" y="423.6" width="7" height="6"/><rect x="51.63" y="423.6" width="7" height="6"/><rect x="0.43" y="474.28" width="7" height="6"/><rect x="13.23" y="474.28" width="7" height="6"/><rect x="64.43" y="474.28" width="7" height="6"/><rect x="26.03" y="474.28" width="7" height="6"/><rect x="38.83" y="474.28" width="7" height="6"/><rect x="51.63" y="474.28" width="7" height="6"/><rect x="6.89" y="487.3" width="7" height="6"/><rect x="19.69" y="487.3" width="7" height="6"/><rect x="70.89" y="487.3" width="7" height="6"/><rect x="32.49" y="487.3" width="7" height="6"/><rect x="45.29" y="487.3" width="7" height="6"/><rect x="58.09" y="487.3" width="7" height="6"/><rect x="0.43" y="499.97" width="7" height="6"/><rect x="13.23" y="499.97" width="7" height="6"/><rect x="64.43" y="499.97" width="7" height="6"/><rect x="26.03" y="499.97" width="7" height="6"/><rect x="38.83" y="499.97" width="7" height="6"/><rect x="51.63" y="499.97" width="7" height="6"/><rect x="227" y="386" width="73" height="63"/><rect x="1" y="512" width="75" height="63"/><rect x="150" y="512" width="113" height="63"/><rect x="224" y="575" width="39" height="63"/><rect x="150" y="638" width="74" height="64"/><rect class="cls-1" y="638" width="39" height="88"/><rect x="80.63" y="638.05" width="7" height="6"/><rect x="93.43" y="638.05" width="7" height="6"/><rect x="144.63" y="638.05" width="7" height="6"/><rect x="106.23" y="638.05" width="7" height="6"/><rect x="119.03" y="638.05" width="7" height="6"/><rect x="131.83" y="638.05" width="7" height="6"/><rect x="74.18" y="650.72" width="7" height="6"/><rect x="86.98" y="650.72" width="7" height="6"/><rect x="138.18" y="650.72" width="7" height="6"/><rect x="99.78" y="650.72" width="7" height="6"/><rect x="112.58" y="650.72" width="7" height="6"/><rect x="125.38" y="650.72" width="7" height="6"/><rect x="80.63" y="663.39" width="7" height="6"/><rect x="93.43" y="663.39" width="7" height="6"/><rect x="144.63" y="663.39" width="7" height="6"/><rect x="106.23" y="663.39" width="7" height="6"/><rect x="119.03" y="663.39" width="7" height="6"/><rect x="131.83" y="663.39" width="7" height="6"/><rect x="80.63" y="688.73" width="7" height="6"/><rect x="93.43" y="688.73" width="7" height="6"/><rect x="144.63" y="688.73" width="7" height="6"/><rect x="106.23" y="688.73" width="7" height="6"/><rect x="119.03" y="688.73" width="7" height="6"/><rect x="131.83" y="688.73" width="7" height="6"/><rect x="74.18" y="701.41" width="7" height="6"/><rect x="86.98" y="701.41" width="7" height="6"/><rect x="138.18" y="701.41" width="7" height="6"/><rect x="99.78" y="701.41" width="7" height="6"/><rect x="112.58" y="701.41" width="7" height="6"/><rect x="125.38" y="701.41" width="7" height="6"/><rect x="80.63" y="714.08" width="7" height="6"/><rect x="93.43" y="714.08" width="7" height="6"/><rect x="144.63" y="714.08" width="7" height="6"/><rect x="106.23" y="714.08" width="7" height="6"/><rect x="119.03" y="714.08" width="7" height="6"/><rect x="131.83" y="714.08" width="7" height="6"/><rect x="74.18" y="676.06" width="7" height="6"/><rect x="86.98" y="676.06" width="7" height="6"/><rect x="138.18" y="676.06" width="7" height="6"/><rect x="99.78" y="676.06" width="7" height="6"/><rect x="112.58" y="676.06" width="7" height="6"/><rect x="125.38" y="676.06" width="7" height="6"/><rect x="231.63" y="638.05" width="7" height="6"/><rect x="244.43" y="638.05" width="7" height="6"/><rect x="295.63" y="638.05" width="7" height="6"/><rect x="257.23" y="638.05" width="7" height="6"/><rect x="270.03" y="638.05" width="7" height="6"/><rect x="282.83" y="638.05" width="7" height="6"/><rect x="225.18" y="650.72" width="7" height="6"/><rect x="237.98" y="650.72" width="7" height="6"/><rect x="289.18" y="650.72" width="7" height="6"/><rect x="250.78" y="650.72" width="7" height="6"/><rect x="263.58" y="650.72" width="7" height="6"/><rect x="276.38" y="650.72" width="7" height="6"/><rect x="231.63" y="663.39" width="7" height="6"/><rect x="244.43" y="663.39" width="7" height="6"/><rect x="295.63" y="663.39" width="7" height="6"/><rect x="257.23" y="663.39" width="7" height="6"/><rect x="270.03" y="663.39" width="7" height="6"/><rect x="282.83" y="663.39" width="7" height="6"/><rect x="231.63" y="688.73" width="7" height="6"/><rect x="244.43" y="688.73" width="7" height="6"/><rect x="295.63" y="688.73" width="7" height="6"/><rect x="257.23" y="688.73" width="7" height="6"/><rect x="270.03" y="688.73" width="7" height="6"/><rect x="282.83" y="688.73" width="7" height="6"/><rect x="225.18" y="701.41" width="7" height="6"/><rect x="237.98" y="701.41" width="7" height="6"/><rect x="289.18" y="701.41" width="7" height="6"/><rect x="250.78" y="701.41" width="7" height="6"/><rect x="263.58" y="701.41" width="7" height="6"/><rect x="276.38" y="701.41" width="7" height="6"/><rect x="231.63" y="714.08" width="7" height="6"/><rect x="244.43" y="714.08" width="7" height="6"/><rect x="295.63" y="714.08" width="7" height="6"/><rect x="257.23" y="714.08" width="7" height="6"/><rect x="270.03" y="714.08" width="7" height="6"/><rect x="282.83" y="714.08" width="7" height="6"/><rect x="225.18" y="676.06" width="7" height="6"/><rect x="237.98" y="676.06" width="7" height="6"/><rect x="289.18" y="676.06" width="7" height="6"/><rect x="250.78" y="676.06" width="7" height="6"/><rect x="263.58" y="676.06" width="7" height="6"/><rect x="276.38" y="676.06" width="7" height="6"/><rect x="383.62" y="512.89" width="7" height="6"/><rect x="396.42" y="512.89" width="7" height="6"/><rect x="447.62" y="512.89" width="7" height="6"/><rect x="409.22" y="512.89" width="7" height="6"/><rect x="422.02" y="512.89" width="7" height="6"/><rect x="434.82" y="512.89" width="7" height="6"/><rect x="377.16" y="525.56" width="7" height="6"/><rect x="389.96" y="525.56" width="7" height="6"/><rect x="441.16" y="525.56" width="7" height="6"/><rect x="402.76" y="525.56" width="7" height="6"/><rect x="415.56" y="525.56" width="7" height="6"/><rect x="428.36" y="525.56" width="7" height="6"/><rect x="383.62" y="538.24" width="7" height="6"/><rect x="396.42" y="538.24" width="7" height="6"/><rect x="447.62" y="538.24" width="7" height="6"/><rect x="409.22" y="538.24" width="7" height="6"/><rect x="422.02" y="538.24" width="7" height="6"/><rect x="434.82" y="538.24" width="7" height="6"/><rect x="383.62" y="563.58" width="7" height="6"/><rect x="396.42" y="563.58" width="7" height="6"/><rect x="447.62" y="563.58" width="7" height="6"/><rect x="409.22" y="563.58" width="7" height="6"/><rect x="422.02" y="563.58" width="7" height="6"/><rect x="434.82" y="563.58" width="7" height="6"/><rect x="377.16" y="576.25" width="7" height="6"/><rect x="389.96" y="576.25" width="7" height="6"/><rect x="441.16" y="576.25" width="7" height="6"/><rect x="402.76" y="576.25" width="7" height="6"/><rect x="415.56" y="576.25" width="7" height="6"/><rect x="428.36" y="576.25" width="7" height="6"/><rect x="383.62" y="588.93" width="7" height="6"/><rect x="396.42" y="588.93" width="7" height="6"/><rect x="447.62" y="588.93" width="7" height="6"/><rect x="409.22" y="588.93" width="7" height="6"/><rect x="422.02" y="588.93" width="7" height="6"/><rect x="434.82" y="588.93" width="7" height="6"/><rect x="377.16" y="550.91" width="7" height="6"/><rect x="389.96" y="550.91" width="7" height="6"/><rect x="441.16" y="550.91" width="7" height="6"/><rect x="402.76" y="550.91" width="7" height="6"/><rect x="415.56" y="550.91" width="7" height="6"/><rect x="428.36" y="550.91" width="7" height="6"/><rect x="377.16" y="601.6" width="7" height="6"/><rect x="389.96" y="601.6" width="7" height="6"/><rect x="441.16" y="601.6" width="7" height="6"/><rect x="402.76" y="601.6" width="7" height="6"/><rect x="415.56" y="601.6" width="7" height="6"/><rect x="428.36" y="601.6" width="7" height="6"/><rect x="383.62" y="614.61" width="7" height="6"/><rect x="396.42" y="614.61" width="7" height="6"/><rect x="447.62" y="614.61" width="7" height="6"/><rect x="409.22" y="614.61" width="7" height="6"/><rect x="422.02" y="614.61" width="7" height="6"/><rect x="434.82" y="614.61" width="7" height="6"/><rect x="377.16" y="627.29" width="7" height="6"/><rect x="389.96" y="627.29" width="7" height="6"/><rect x="441.16" y="627.29" width="7" height="6"/><rect x="402.76" y="627.29" width="7" height="6"/><rect x="415.56" y="627.29" width="7" height="6"/><rect x="428.36" y="627.29" width="7" height="6"/><rect x="537.62" y="512.89" width="7" height="6"/><rect x="550.42" y="512.89" width="7" height="6"/><rect x="601.62" y="512.89" width="7" height="6"/><rect x="563.22" y="512.89" width="7" height="6"/><rect x="576.02" y="512.89" width="7" height="6"/><rect x="588.82" y="512.89" width="7" height="6"/><rect x="531.16" y="525.56" width="7" height="6"/><rect x="543.96" y="525.56" width="7" height="6"/><rect x="595.16" y="525.56" width="7" height="6"/><rect x="556.76" y="525.56" width="7" height="6"/><rect x="569.56" y="525.56" width="7" height="6"/><rect x="582.36" y="525.56" width="7" height="6"/><rect x="537.62" y="538.24" width="7" height="6"/><rect x="550.42" y="538.24" width="7" height="6"/><rect x="601.62" y="538.24" width="7" height="6"/><rect x="563.22" y="538.24" width="7" height="6"/><rect x="576.02" y="538.24" width="7" height="6"/><rect x="588.82" y="538.24" width="7" height="6"/><rect x="537.62" y="563.58" width="7" height="6"/><rect x="550.42" y="563.58" width="7" height="6"/><rect x="601.62" y="563.58" width="7" height="6"/><rect x="563.22" y="563.58" width="7" height="6"/><rect x="576.02" y="563.58" width="7" height="6"/><rect x="588.82" y="563.58" width="7" height="6"/><rect x="531.16" y="576.25" width="7" height="6"/><rect x="543.96" y="576.25" width="7" height="6"/><rect x="595.16" y="576.25" width="7" height="6"/><rect x="556.76" y="576.25" width="7" height="6"/><rect x="569.56" y="576.25" width="7" height="6"/><rect x="582.36" y="576.25" width="7" height="6"/><rect x="537.62" y="588.93" width="7" height="6"/><rect x="550.42" y="588.93" width="7" height="6"/><rect x="601.62" y="588.93" width="7" height="6"/><rect x="563.22" y="588.93" width="7" height="6"/><rect x="576.02" y="588.93" width="7" height="6"/><rect x="588.82" y="588.93" width="7" height="6"/><rect x="531.16" y="550.91" width="7" height="6"/><rect x="543.96" y="550.91" width="7" height="6"/><rect x="595.16" y="550.91" width="7" height="6"/><rect x="556.76" y="550.91" width="7" height="6"/><rect x="569.56" y="550.91" width="7" height="6"/><rect x="582.36" y="550.91" width="7" height="6"/><rect x="531.16" y="601.6" width="7" height="6"/><rect x="543.96" y="601.6" width="7" height="6"/><rect x="595.16" y="601.6" width="7" height="6"/><rect x="556.76" y="601.6" width="7" height="6"/><rect x="569.56" y="601.6" width="7" height="6"/><rect x="582.36" y="601.6" width="7" height="6"/><rect x="537.62" y="614.61" width="7" height="6"/><rect x="550.42" y="614.61" width="7" height="6"/><rect x="601.62" y="614.61" width="7" height="6"/><rect x="563.22" y="614.61" width="7" height="6"/><rect x="576.02" y="614.61" width="7" height="6"/><rect x="588.82" y="614.61" width="7" height="6"/><rect x="531.16" y="627.29" width="7" height="6"/><rect x="543.96" y="627.29" width="7" height="6"/><rect x="595.16" y="627.29" width="7" height="6"/><rect x="556.76" y="627.29" width="7" height="6"/><rect x="569.56" y="627.29" width="7" height="6"/><rect x="582.36" y="627.29" width="7" height="6"/><rect class="cls-1" x="338" y="638" width="39" height="88"/><rect x="377" y="638" width="77" height="64"/><circle cx="492.5" cy="704" r="22"/><circle cx="115" cy="199.5" r="22.5"/><circle cx="646" cy="452" r="23"/><rect x="684" y="386" width="36" height="255"/><rect x="613.08" y="640.74" width="7" height="6"/><rect x="625.88" y="640.74" width="7" height="6"/><rect x="677.08" y="640.74" width="7" height="6"/><rect x="638.68" y="640.74" width="7" height="6"/><rect x="651.48" y="640.74" width="7" height="6"/><rect x="664.28" y="640.74" width="7" height="6"/><rect x="606.63" y="653.41" width="7" height="6"/><rect x="619.43" y="653.41" width="7" height="6"/><rect x="670.63" y="653.41" width="7" height="6"/><rect x="632.23" y="653.41" width="7" height="6"/><rect x="645.03" y="653.41" width="7" height="6"/><rect x="657.83" y="653.41" width="7" height="6"/><rect x="613.08" y="666.09" width="7" height="6"/><rect x="625.88" y="666.09" width="7" height="6"/><rect x="677.08" y="666.09" width="7" height="6"/><rect x="638.68" y="666.09" width="7" height="6"/><rect x="651.48" y="666.09" width="7" height="6"/><rect x="664.28" y="666.09" width="7" height="6"/><rect x="613.08" y="691.43" width="7" height="6"/><rect x="625.88" y="691.43" width="7" height="6"/><rect x="677.08" y="691.43" width="7" height="6"/><rect x="638.68" y="691.43" width="7" height="6"/><rect x="651.48" y="691.43" width="7" height="6"/><rect x="664.28" y="691.43" width="7" height="6"/><rect x="606.63" y="704.1" width="7" height="6"/><rect x="619.43" y="704.1" width="7" height="6"/><rect x="670.63" y="704.1" width="7" height="6"/><rect x="632.23" y="704.1" width="7" height="6"/><rect x="645.03" y="704.1" width="7" height="6"/><rect x="657.83" y="704.1" width="7" height="6"/><rect x="613.08" y="716.77" width="7" height="6"/><rect x="625.88" y="716.77" width="7" height="6"/><rect x="677.08" y="716.77" width="7" height="6"/><rect x="638.68" y="716.77" width="7" height="6"/><rect x="651.48" y="716.77" width="7" height="6"/><rect x="664.28" y="716.77" width="7" height="6"/><rect x="606.63" y="678.76" width="7" height="6"/><rect x="619.43" y="678.76" width="7" height="6"/><rect x="670.63" y="678.76" width="7" height="6"/><rect x="632.23" y="678.76" width="7" height="6"/><rect x="645.03" y="678.76" width="7" height="6"/><rect x="657.83" y="678.76" width="7" height="6"/><circle cx="112.5" cy="578.5" r="22.5"/><rect class="cls-1" x="150" y="386" width="38" height="127"/></g></g></svg>